# xmcd CD database file
#
# Track frame offsets:
#	150
#	28109
#	39759
#	67392
#	95317
#	102187
#	108617
#	113606
#	121427
#	139170
#
# Disc length: 2976 seconds
#
# Revision: 0
# Processed by: cddbd v1.5PL3 Copyright (c) Steve Scherf et al.
# Submitted via: CDex 1.51
#
DISCID=870b9e0a
DTITLE=SQUEEZ - 乳感ナースっ！ 通販特典CD
DYEAR=2004
DGENRE=Game
TTITLE0=Saori/Precious love -Full Version-
TTITLE1=Saori/Precious love -Short Version-
TTITLE2=Precious love -Inst-
TTITLE3=Precious love -Karaoke-
TTITLE4=通常シーン
TTITLE5=回想シーン
TTITLE6=ハプニング
TTITLE7=凌辱シーン
TTITLE8=Hシーン
TTITLE9=DATA Track
EXTD=YEAR: 2004
EXTT0=
EXTT1=
EXTT2=
EXTT3=
EXTT4=
EXTT5=
EXTT6=
EXTT7=
EXTT8=
EXTT9=
PLAYORDER=
